<svg width="48" height="32" viewBox="0 0 48 32" fill="none" xmlns="http://www.w3.org/2000/svg">
<path d="M1.99999 -6.8024e-06C1.86748 -0.00188085 1.73592 0.0226 1.61295 0.0720137C1.48998 0.121427 1.37806 0.194789 1.28369 0.287833C1.18932 0.380878 1.11438 0.49175 1.06324 0.614007C1.01209 0.736264 0.985748 0.867468 0.985748 0.999993C0.985748 1.13252 1.01209 1.26372 1.06324 1.38598C1.11438 1.50824 1.18932 1.61911 1.28369 1.71215C1.37806 1.8052 1.48998 1.87856 1.61295 1.92797C1.73592 1.97739 1.86748 2.00187 1.99999 1.99999H46C46.1325 2.00187 46.2641 1.97739 46.387 1.92797C46.51 1.87856 46.6219 1.8052 46.7163 1.71215C46.8107 1.61911 46.8856 1.50824 46.9367 1.38598C46.9879 1.26372 47.0142 1.13252 47.0142 0.999993C47.0142 0.867468 46.9879 0.736264 46.9367 0.614007C46.8856 0.49175 46.8107 0.380878 46.7163 0.287833C46.6219 0.194789 46.51 0.121427 46.387 0.0720137C46.2641 0.0226 46.1325 -0.00188085 46 -6.8024e-06H1.99999ZM1.99999 15C1.86748 14.9981 1.73592 15.0226 1.61295 15.072C1.48998 15.1214 1.37806 15.1948 1.28369 15.2878C1.18932 15.3809 1.11438 15.4917 1.06324 15.614C1.01209 15.7363 0.985748 15.8675 0.985748 16C0.985748 16.1325 1.01209 16.2637 1.06324 16.386C1.11438 16.5082 1.18932 16.6191 1.28369 16.7122C1.37806 16.8052 1.48998 16.8786 1.61295 16.928C1.73592 16.9774 1.86748 17.0019 1.99999 17H46C46.1325 17.0019 46.2641 16.9774 46.387 16.928C46.51 16.8786 46.6219 16.8052 46.7163 16.7122C46.8107 16.6191 46.8856 16.5082 46.9367 16.386C46.9879 16.2637 47.0142 16.1325 47.0142 16C47.0142 15.8675 46.9879 15.7363 46.9367 15.614C46.8856 15.4917 46.8107 15.3809 46.7163 15.2878C46.6219 15.1948 46.51 15.1214 46.387 15.072C46.2641 15.0226 46.1325 14.9981 46 15H1.99999ZM1.99999 30C1.86748 29.9981 1.73592 30.0226 1.61295 30.072C1.48998 30.1214 1.37806 30.1948 1.28369 30.2878C1.18932 30.3809 1.11438 30.4917 1.06324 30.614C1.01209 30.7363 0.985748 30.8675 0.985748 31C0.985748 31.1325 1.01209 31.2637 1.06324 31.386C1.11438 31.5082 1.18932 31.6191 1.28369 31.7122C1.37806 31.8052 1.48998 31.8786 1.61295 31.928C1.73592 31.9774 1.86748 32.0019 1.99999 32H46C46.1325 32.0019 46.2641 31.9774 46.387 31.928C46.51 31.8786 46.6219 31.8052 46.7163 31.7122C46.8107 31.6191 46.8856 31.5082 46.9367 31.386C46.9879 31.2637 47.0142 31.1325 47.0142 31C47.0142 30.8675 46.9879 30.7363 46.9367 30.614C46.8856 30.4917 46.8107 30.3809 46.7163 30.2878C46.6219 30.1948 46.51 30.1214 46.387 30.072C46.2641 30.0226 46.1325 29.9981 46 30H1.99999Z" fill="#F8F4E8"/>
</svg>
